<svg width="356" height="356" viewBox="0 0 356 356" fill="none" xmlns="http://www.w3.org/2000/svg">
<rect width="356" height="356" fill="#212121"/>
<path d="M83.25 204.359H115.219V215H70.0312V146.75H83.25V204.359ZM174.422 185.891C174.422 188.828 174.156 191.625 173.625 194.281C173.094 196.906 172.328 199.344 171.328 201.594C170.266 203.844 168.953 205.906 167.391 207.781C165.828 209.656 164.047 211.219 162.047 212.469C160.234 213.562 158.234 214.406 156.047 215C153.891 215.625 151.562 215.938 149.062 215.938C146.406 215.938 143.953 215.594 141.703 214.906C139.453 214.219 137.406 213.25 135.562 212C133.75 210.688 132.125 209.109 130.688 207.266C129.25 205.391 128.047 203.281 127.078 200.938C126.203 198.781 125.531 196.438 125.062 193.906C124.625 191.375 124.406 188.703 124.406 185.891V175.953C124.406 172.953 124.656 170.109 125.156 167.422C125.688 164.734 126.453 162.25 127.453 159.969C128.422 157.812 129.594 155.859 130.969 154.109C132.375 152.359 133.984 150.859 135.797 149.609C137.578 148.391 139.578 147.453 141.797 146.797C144.016 146.141 146.422 145.812 149.016 145.812C151.641 145.812 154.094 146.156 156.375 146.844C158.688 147.5 160.766 148.453 162.609 149.703C164.453 150.891 166.062 152.328 167.438 154.016C168.844 155.703 170.047 157.562 171.047 159.594C172.141 161.906 172.969 164.438 173.531 167.188C174.125 169.938 174.422 172.859 174.422 175.953V185.891ZM161.062 175.859C161.062 174.109 160.969 172.453 160.781 170.891C160.625 169.297 160.359 167.828 159.984 166.484C159.516 164.797 158.891 163.297 158.109 161.984C157.328 160.641 156.406 159.547 155.344 158.703C154.5 158.078 153.547 157.594 152.484 157.25C151.453 156.906 150.297 156.734 149.016 156.734C147.797 156.734 146.688 156.891 145.688 157.203C144.719 157.516 143.844 157.969 143.062 158.562C142 159.438 141.094 160.531 140.344 161.844C139.625 163.156 139.062 164.688 138.656 166.438C138.344 167.781 138.109 169.25 137.953 170.844C137.828 172.438 137.766 174.109 137.766 175.859V185.891C137.766 187.547 137.828 189.141 137.953 190.672C138.078 192.203 138.297 193.625 138.609 194.938C138.953 196.594 139.453 198.109 140.109 199.484C140.797 200.828 141.594 201.922 142.5 202.766C143.344 203.516 144.297 204.094 145.359 204.5C146.453 204.906 147.688 205.109 149.062 205.109C150.375 205.109 151.578 204.922 152.672 204.547C153.766 204.172 154.734 203.625 155.578 202.906C156.641 202.031 157.531 200.938 158.25 199.625C159 198.281 159.594 196.766 160.031 195.078C160.375 193.766 160.625 192.328 160.781 190.766C160.969 189.203 161.062 187.578 161.062 185.891V175.859ZM231.375 207.031C230.531 208.062 229.375 209.109 227.906 210.172C226.438 211.234 224.703 212.188 222.703 213.031C220.672 213.906 218.406 214.609 215.906 215.141C213.406 215.672 210.719 215.938 207.844 215.938C205.344 215.938 202.984 215.641 200.766 215.047C198.578 214.484 196.562 213.656 194.719 212.562C192.906 211.438 191.25 210.062 189.75 208.438C188.281 206.812 187.031 204.953 186 202.859C184.812 200.547 183.906 197.938 183.281 195.031C182.688 192.125 182.391 188.969 182.391 185.562V176.281C182.391 173.031 182.688 170.016 183.281 167.234C183.875 164.422 184.719 161.875 185.812 159.594C186.844 157.562 188.031 155.734 189.375 154.109C190.75 152.484 192.25 151.078 193.875 149.891C195.781 148.547 197.859 147.531 200.109 146.844C202.359 146.156 204.734 145.812 207.234 145.812C211.078 145.812 214.422 146.297 217.266 147.266C220.141 148.234 222.562 149.625 224.531 151.438C226.5 153.281 228.031 155.516 229.125 158.141C230.25 160.766 230.984 163.719 231.328 167H218.484C218.266 165.344 217.922 163.875 217.453 162.594C217.016 161.312 216.406 160.234 215.625 159.359C214.75 158.391 213.641 157.672 212.297 157.203C210.984 156.703 209.406 156.453 207.562 156.453C206.562 156.453 205.594 156.609 204.656 156.922C203.719 157.234 202.844 157.688 202.031 158.281C200.969 159.094 200 160.156 199.125 161.469C198.281 162.781 197.578 164.328 197.016 166.109C196.578 167.484 196.234 169.016 195.984 170.703C195.766 172.391 195.656 174.219 195.656 176.188V185.562C195.656 188.031 195.812 190.281 196.125 192.312C196.469 194.344 196.938 196.141 197.531 197.703C197.906 198.609 198.328 199.453 198.797 200.234C199.297 200.984 199.844 201.656 200.438 202.25C201.438 203.25 202.594 204.016 203.906 204.547C205.25 205.047 206.766 205.312 208.453 205.344C209.484 205.344 210.5 205.266 211.5 205.109C212.5 204.953 213.438 204.734 214.312 204.453C215.188 204.172 215.953 203.859 216.609 203.516C217.297 203.141 217.812 202.75 218.156 202.344L218.203 189.969H206.906V180.125H231.328L231.375 207.031ZM289.734 185.891C289.734 188.828 289.469 191.625 288.938 194.281C288.406 196.906 287.641 199.344 286.641 201.594C285.578 203.844 284.266 205.906 282.703 207.781C281.141 209.656 279.359 211.219 277.359 212.469C275.547 213.562 273.547 214.406 271.359 215C269.203 215.625 266.875 215.938 264.375 215.938C261.719 215.938 259.266 215.594 257.016 214.906C254.766 214.219 252.719 213.25 250.875 212C249.062 210.688 247.438 209.109 246 207.266C244.562 205.391 243.359 203.281 242.391 200.938C241.516 198.781 240.844 196.438 240.375 193.906C239.938 191.375 239.719 188.703 239.719 185.891V175.953C239.719 172.953 239.969 170.109 240.469 167.422C241 164.734 241.766 162.25 242.766 159.969C243.734 157.812 244.906 155.859 246.281 154.109C247.688 152.359 249.297 150.859 251.109 149.609C252.891 148.391 254.891 147.453 257.109 146.797C259.328 146.141 261.734 145.812 264.328 145.812C266.953 145.812 269.406 146.156 271.688 146.844C274 147.5 276.078 148.453 277.922 149.703C279.766 150.891 281.375 152.328 282.75 154.016C284.156 155.703 285.359 157.562 286.359 159.594C287.453 161.906 288.281 164.438 288.844 167.188C289.438 169.938 289.734 172.859 289.734 175.953V185.891ZM276.375 175.859C276.375 174.109 276.281 172.453 276.094 170.891C275.938 169.297 275.672 167.828 275.297 166.484C274.828 164.797 274.203 163.297 273.422 161.984C272.641 160.641 271.719 159.547 270.656 158.703C269.812 158.078 268.859 157.594 267.797 157.25C266.766 156.906 265.609 156.734 264.328 156.734C263.109 156.734 262 156.891 261 157.203C260.031 157.516 259.156 157.969 258.375 158.562C257.312 159.438 256.406 160.531 255.656 161.844C254.938 163.156 254.375 164.688 253.969 166.438C253.656 167.781 253.422 169.25 253.266 170.844C253.141 172.438 253.078 174.109 253.078 175.859V185.891C253.078 187.547 253.141 189.141 253.266 190.672C253.391 192.203 253.609 193.625 253.922 194.938C254.266 196.594 254.766 198.109 255.422 199.484C256.109 200.828 256.906 201.922 257.812 202.766C258.656 203.516 259.609 204.094 260.672 204.5C261.766 204.906 263 205.109 264.375 205.109C265.688 205.109 266.891 204.922 267.984 204.547C269.078 204.172 270.047 203.625 270.891 202.906C271.953 202.031 272.844 200.938 273.562 199.625C274.312 198.281 274.906 196.766 275.344 195.078C275.688 193.766 275.938 192.328 276.094 190.766C276.281 189.203 276.375 187.578 276.375 185.891V175.859Z" fill="#5E5E5E"/>
</svg>
